<?xml version="1.0" encoding="utf-8" ?>
<svg baseProfile="full" height="300" version="1.1" width="300" xmlns="http://www.w3.org/2000/svg" xmlns:ev="http://www.w3.org/2001/xml-events" xmlns:xlink="http://www.w3.org/1999/xlink"><defs /><g style="fill:none;stroke:#000000;stroke-width:3;stroke-linecap:round;stroke-linejoin:round;"><path d="M 36.05,19.5 c 0.07,0.61 -0.17,1.57 -0.63,2.21 C 30,29.25 23.75,36.25 11.25,45.29"><animateMotion begin="0s" dur="5s" keyPoints="0%;100%;0%" keyTimes="0;0.5;1" repeatCount="indefinite" /></path><path d="M 19,19.25 c 28.25,23.5 17.71,84.53 6,71.5"><animateMotion begin="0s" dur="5s" keyPoints="0%;100%;0%" keyTimes="0;0.5;1" repeatCount="indefinite" /></path><path d="M 31.33,46.75 c 0.05,0.63 -0.01,1.58 -0.36,2.26 c -4.44,8.62 -8.69,14.71 -19.47,24.03"><animateMotion begin="0s" dur="5s" keyPoints="0%;100%;0%" keyTimes="0;0.5;1" repeatCount="indefinite" /></path><path d="M 42.25,32.18 c 2.75,0.45 4.5,0.33 6.63,0.07 c 12.24,-1.5 29.24,-3.12 40.87,-3.86 c 2.16,-0.14 4.37,-0.17 6.49,0.26"><animateMotion begin="0s" dur="5s" keyPoints="0%;100%;0%" keyTimes="0;0.5;1" repeatCount="indefinite" /></path><path d="M 55.26,17.76 c 0.99,0.99 1.55,2.3 1.67,3.39 C 58.1,31.32 59.11,41.3 59.44,45"><animateMotion begin="0s" dur="5s" keyPoints="0%;100%;0%" keyTimes="0;0.5;1" repeatCount="indefinite" /></path><path d="M 79.98,16.5 c 0.65,1 0.77,1.88 0.58,3.07 c -1.66,10.51 -2.17,14.72 -4.17,24.58"><animateMotion begin="0s" dur="5s" keyPoints="0%;100%;0%" keyTimes="0;0.5;1" repeatCount="indefinite" /></path><path d="M 47.32,52.24 c 0.97,0.97 1.36,2.43 1.5,3.5 c 1.06,8.64 2.3,20.37 3.03,31.5 c 0.13,1.92 0.24,3.8 0.35,5.59"><animateMotion begin="0s" dur="5s" keyPoints="0%;100%;0%" keyTimes="0;0.5;1" repeatCount="indefinite" /></path><path d="M 49.78,54.28 c 12.83,-1.32 25.34,-2.9 36.47,-3.46 c 3.89,-0.19 6.42,0.53 6.01,4.81 c -0.62,6.5 -2.2,19.8 -3.89,30.68 c -0.35,2.25 -0.7,4.4 -1.05,6.36"><animateMotion begin="0s" dur="5s" keyPoints="0%;100%;0%" keyTimes="0;0.5;1" repeatCount="indefinite" /></path><path d="M 67.8,53.84 c 0.87,0.87 1.08,2.01 1.08,3.16 c 0,8 -0.01,25.49 -0.01,31.62"><animateMotion begin="0s" dur="5s" keyPoints="0%;100%;0%" keyTimes="0;0.5;1" repeatCount="indefinite" /></path><path d="M 51.47,70.33 c 5.4,-0.58 35.24,-2.33 38.19,-2.39"><animateMotion begin="0s" dur="5s" keyPoints="0%;100%;0%" keyTimes="0;0.5;1" repeatCount="indefinite" /></path><path d="M 53.28,90.49 c 9.97,-0.62 22.66,-1 33.57,-1.4"><animateMotion begin="0s" dur="5s" keyPoints="0%;100%;0%" keyTimes="0;0.5;1" repeatCount="indefinite" /></path></g></svg>